# xmcd
#
# Track frame offsets:
#  150
#  13691
#  29113
#  47983
#  70246
#  86891
#  106872
#  124116
#  143704
#  166217
#
# Disc length: 2459 seconds
#
# Revision: 0
# Processed by: cddbd v1.5.1PL0 Copyright (c) Steve Scherf et al.
# Submitted via: Collectorz.com_Music_Collector 6.9
#
DISCID=8a09990a
DTITLE=Bill Carper (aka Whalebone Bill) - The Blues My 
DYEAR=1900
DGENRE=Blues
TTITLE0=Big Boss Man
TTITLE1=8 Ball Wine
TTITLE2=Dust My Broom
TTITLE3=Hoochie Coochie Man
TTITLE4=How Long Blues
TTITLE5=It Hurts Me Too
TTITLE6=What You Want Me To Do
TTITLE7=Mojo
TTITLE8=The Things I Used To Do
TTITLE9=Little Wheel
EXTD=
EXTT0=
EXTT1=
EXTT2=
EXTT3=
EXTT4=
EXTT5=
EXTT6=
EXTT7=
EXTT8=
EXTT9=
PLAYORDER=
